<?xml version="1.0" encoding="iso-8859-1"?>
<!-- Generator: Adobe Illustrator 19.1.0, SVG Export Plug-In . SVG Version: 6.00 Build 0)  -->
<svg version="1.1" id="Capa_1" xmlns="http://www.w3.org/2000/svg" xmlns:xlink="http://www.w3.org/1999/xlink" x="0px" y="0px"
	 viewBox="0 0 63.001 63.001" style="enable-background:new 0 0 63.001 63.001;" xml:space="preserve">
<g>
	<g>
		<g id="group-23svg">
			<path id="path-1_16_" d="M31.5,51.219c-0.67,0-1.301-0.261-1.774-0.736L0.44,21.198c-0.586-0.586-0.586-1.535,0-2.121
				s1.535-0.586,2.121,0L31.5,48.015l28.94-28.938c0.586-0.586,1.535-0.586,2.121,0s0.586,1.535,0,2.121L33.276,50.483
				C32.8,50.958,32.17,51.219,31.5,51.219z"/>
			<path id="path-2_14_" d="M31.5,37.993c-0.384,0-0.767-0.147-1.06-0.44L7.228,14.342c-0.586-0.586-0.586-1.536,0-2.122
				c0.586-0.585,1.535-0.585,2.121,0L31.5,34.372L53.653,12.22c0.586-0.585,1.535-0.585,2.121,0c0.586,0.586,0.586,1.536,0,2.122
				L32.562,37.553C32.269,37.846,31.885,37.993,31.5,37.993z"/>
		</g>
	</g>
	<g>
	</g>
	<g>
	</g>
	<g>
	</g>
	<g>
	</g>
	<g>
	</g>
	<g>
	</g>
	<g>
	</g>
	<g>
	</g>
	<g>
	</g>
	<g>
	</g>
	<g>
	</g>
	<g>
	</g>
	<g>
	</g>
	<g>
	</g>
	<g>
	</g>
</g>
<g>
</g>
<g>
</g>
<g>
</g>
<g>
</g>
<g>
</g>
<g>
</g>
<g>
</g>
<g>
</g>
<g>
</g>
<g>
</g>
<g>
</g>
<g>
</g>
<g>
</g>
<g>
</g>
<g>
</g>
</svg>
